<svg xmlns="http://www.w3.org/2000/svg" version="1.1" xmlns:xlink="http://www.w3.org/1999/xlink" xmlns:svgjs="http://svgjs.dev/svgjs" width="1000" height="1000" viewBox="0 0 1000 1000"><rect width="1000" height="1000" fill="#ffffff"></rect><g transform="matrix(0.7,0,0,0.7,149.57575757575756,282.1265587044535)"><svg viewBox="0 0 396 247" data-background-color="#00462f" preserveAspectRatio="xMidYMid meet" height="623" width="1000" xmlns="http://www.w3.org/2000/svg" xmlns:xlink="http://www.w3.org/1999/xlink"><g id="tight-bounds" transform="matrix(1,0,0,1,0.2400000000000091,-0.09999999999999432)"><svg viewBox="0 0 395.52 247.2" height="247.2" width="395.52"><g><svg></svg></g><g><svg viewBox="0 0 395.52 247.2" height="247.2" width="395.52"><g transform="matrix(1,0,0,1,75.54432,78.91619363969508)"><svg viewBox="0 0 244.43135999999998 89.36761272060981" height="89.36761272060981" width="244.43135999999998"><g><svg viewBox="0 0 244.43135999999998 89.36761272060981" height="89.36761272060981" width="244.43135999999998"><g><svg viewBox="0 0 244.43136 89.36761272060983" height="89.36761272060981" width="244.43135999999998"><g><svg viewBox="0 0 244.43136 89.36761272060983" height="89.36761272060983" width="244.43136"><g id="textblocktransform"><svg viewBox="0 0 244.43136 89.36761272060983" height="89.36761272060983" width="244.43136" id="textblock"><g><svg viewBox="0 0 244.43136 50.74847078801978" height="50.74847078801978" width="244.43136"><g transform="matrix(1,0,0,1,0,0)"><svg width="244.43136" viewBox="0.9000000357627869 -35 171.94000244140625 35.70000076293945" height="50.74847078801978" data-palette-color="#ffffff"><path d="M34.6-29.9L23.4-0.5Q23.35-0.5 23.15-0.5 22.95-0.5 21.6 0.5L21.6 0.5 10.1-29.6 7.7-3.4Q7.6-2.6 8.45-2.05 9.3-1.5 10.8-1.5L10.8-1.5 12.9-1.5 12.9 0 0.9 0 0.9-1.5 2.5-1.5Q5.4-1.5 5.6-3.7L5.6-3.7 8.1-31.3Q8.2-32.25 7.43-32.88 6.65-33.5 5-33.5L5-33.5 3.4-33.5 3.4-35 12.8-35 23.5-6.8 34.3-35 43.3-35 43.3-33.6 41.3-33.6Q38.9-33.6 38.9-31.75L38.9-31.75Q38.9-31.6 38.9-31.4L38.9-31.4 41.2-3.7Q41.3-2.55 41.78-2.02 42.25-1.5 43.5-1.5L43.5-1.5 45.5-1.5 45.5 0 32.7 0 32.7-1.5 34.4-1.5Q35.8-1.5 36.3-1.95 36.8-2.4 36.8-2.93 36.8-3.45 36.8-3.7L36.8-3.7 34.6-29.9ZM70.2-1.4L70.2 0 63 0 63-4Q60.5-1.3 58.85-0.3 57.2 0.7 54.37 0.7 51.55 0.7 49.97-0.63 48.4-1.95 48.4-4.35 48.4-6.75 50.47-9.03 52.55-11.3 55.32-12.48 58.1-13.65 60.2-14.28 62.3-14.9 63-14.9L63-14.9 63-16Q63-20.7 59.1-20.7L59.1-20.7Q56.4-20.7 54.07-19.55 51.75-18.4 50.6-16.6L50.6-16.6 49.6-17.5Q52.95-24 61.2-24L61.2-24Q63.3-24 64.67-22.88 66.05-21.75 66.52-20.25 67-18.75 67-16.9L67-16.9 67-3.4Q67-2.75 67.1-2.4 67.2-2.05 67.72-1.73 68.25-1.4 69.3-1.4L69.3-1.4 70.2-1.4ZM63-6.8L63-6.8 63-12.9Q59.1-12.15 55.75-9.9 52.4-7.65 52.4-5L52.4-5Q52.4-3.95 53.42-3.18 54.45-2.4 55.97-2.4 57.5-2.4 59.6-3.78 61.7-5.15 63-6.8ZM87.95-3.1L87.95-3.1 88.35-1.9Q84.6 0.7 80.15 0.7L80.15 0.7Q78.55 0.7 77.4-0.45 76.25-1.6 76.25-3.5L76.25-3.5 76.25-21.2 73.35-21.2 73.35-23.3 74.45-23.3Q76.1-23.3 77.52-25.3 78.95-27.3 78.95-29L78.95-29 80.25-29 80.25-23.3 87.05-23.3 87.05-21.2 82.15-21.2Q80.25-21.2 80.25-19.4L80.25-19.4 80.25-5.1Q80.25-1.8 82.65-1.8L82.65-1.8Q85.35-1.8 87.95-3.1ZM115.34-1.4L115.34 0 108.14 0 108.14-5.9Q106.99-2.75 104.59-1.03 102.19 0.7 98.74 0.7L98.74 0.7Q96.94 0.7 95.69-0.1 94.44-0.9 93.89-2.15L93.89-2.15Q92.94-4.3 92.94-6.4L92.94-6.4 92.94-18.3Q92.94-20.6 90.04-20.6L90.04-20.6 90.04-22Q91.04-22 93.07-22.55 95.09-23.1 96.04-23.7L96.04-23.7 96.94-23.8 96.94-7.3Q96.94-5.05 98.02-3.88 99.09-2.7 101.04-2.7L101.04-2.7Q103.84-2.7 105.99-5.7 108.14-8.7 108.14-10.2L108.14-10.2 108.14-18.3Q108.14-20.6 105.24-20.6L105.24-20.6 105.24-22Q106.34-22 108.37-22.55 110.39-23.1 111.34-23.7L111.34-23.7 112.24-23.8 112.24-3.4Q112.24-2.7 112.34-2.35L112.34-2.35Q112.59-1.4 114.44-1.4L114.44-1.4 115.34-1.4ZM158.84-1.4L158.84 0 150.14 0 150.14-1.4 150.34-1.4Q150.89-1.4 151.27-1.95 151.64-2.5 151.64-3.3L151.64-3.3 151.64-16Q151.64-18 150.67-19.3 149.69-20.6 148.17-20.6 146.64-20.6 145.37-19.9 144.09-19.2 143.32-18.2 142.54-17.2 141.94-16.1L141.94-16.1Q140.94-14.15 140.94-13.2L140.94-13.2 140.94-3.4Q140.94-1.4 143.14-1.4L143.14-1.4 144.04-1.4 144.04 0 135.34 0 135.34-1.4 135.64-1.4Q136.09-1.4 136.47-1.95 136.84-2.5 136.84-3.3L136.84-3.3 136.84-16Q136.84-18 135.89-19.3 134.94-20.6 133.32-20.6 131.69-20.6 130.24-19.55 128.79-18.5 127.94-17.1L127.94-17.1Q126.24-14.25 126.24-13.1L126.24-13.1 126.24-3.6Q126.24-2.8 126.32-2.45 126.39-2.1 126.89-1.75 127.39-1.4 128.44-1.4L128.44-1.4 129.34-1.4 129.34 0 119.24 0 119.24-1.4 120.04-1.4Q121.39-1.4 121.77-1.85 122.14-2.3 122.14-3.3L122.14-3.3 122.14-18.3Q122.14-19.25 121.52-19.68 120.89-20.1 119.24-20.1L119.24-20.1 119.24-21.5Q120.24-21.5 122.27-22.23 124.29-22.95 125.34-23.6L125.34-23.6 126.24-23.8 126.24-17.4Q127.69-20.8 129.72-22.4 131.74-24 135.24-24L135.24-24Q136.84-24 138.04-23.33 139.24-22.65 139.84-21.55L139.84-21.55Q140.84-19.6 140.94-17.4L140.94-17.4Q142.09-20.75 144.19-22.38 146.29-24 149.84-24L149.84-24Q151.64-24 152.89-23.2 154.14-22.4 154.69-21.15L154.69-21.15Q155.64-19 155.64-16.9L155.64-16.9 155.64-3.4Q155.64-2.7 155.74-2.35L155.74-2.35Q155.99-1.4 157.84-1.4L157.84-1.4 158.84-1.4ZM167.36-34.8Q168.49-34.8 169.11-34.05 169.74-33.3 169.74-32.13 169.74-30.95 168.79-30.18 167.84-29.4 166.71-29.4 165.59-29.4 164.96-30.15 164.34-30.9 164.34-32.02 164.34-33.15 165.29-33.98 166.24-34.8 167.36-34.8ZM172.84-1.4L172.84 0 162.74 0 162.74-1.4 163.54-1.4Q164.89-1.4 165.26-1.85 165.64-2.3 165.64-3.3L165.64-3.3 165.64-18.3Q165.64-19.25 165.01-19.68 164.39-20.1 162.74-20.1L162.74-20.1 162.74-21.5Q163.74-21.5 165.76-22.23 167.79-22.95 168.84-23.6L168.84-23.6 169.74-23.8 169.74-3.6Q169.74-2.8 169.81-2.45 169.89-2.1 170.39-1.75 170.89-1.4 171.94-1.4L171.94-1.4 172.84-1.4Z" opacity="1" transform="matrix(1,0,0,1,0,0)" fill="#000000" class="wordmark-text-0" data-fill-palette-color="primary" id="text-0"></path></svg></g></svg></g><g transform="matrix(1,0,0,1,0,62.72896677777234)"><svg viewBox="0 0 244.43136 26.638645942837492" height="26.638645942837492" width="244.43136"><g transform="matrix(1,0,0,1,0,0)"><svg width="244.43136" viewBox="4.470000267028809 -41.939998626708984 486.7513427734375 53.04999923706055" height="26.638645942837492" data-palette-color="#ffffff"><path d="M18.6-3.03L18.82-3.03Q22.8-3.03 26.83-4.57L26.83-4.57 27.91-1.2Q26.05-0.27 23.44 0.11 20.83 0.49 18.82 0.49L18.82 0.49 18.48 0.49Q9.79 0.49 6.84-4.49L6.84-4.49Q5.03-7.52 4.64-12.65L4.64-12.65Q4.47-15.11 4.47-18.04 4.47-20.97 4.63-23.62 4.79-26.27 5.27-28.48 5.76-30.69 6.69-32.42 7.62-34.16 9.18-35.35L9.18-35.35Q12.35-37.84 18.41-37.84L18.41-37.84Q22.31-37.84 24.69-37.34 27.08-36.84 27.91-36.52L27.91-36.52 26.81-32.67Q22.05-34.33 18.66-34.33 15.28-34.33 13.46-33.51 11.65-32.69 10.62-30.81L10.62-30.81Q8.84-27.59 8.84-18.53L8.84-18.53 8.84-16.72Q8.84-9.28 10.77-6.32L10.77-6.32Q12.92-3.03 18.6-3.03L18.6-3.03ZM33.74-14.45L33.74-14.45Q33.74-20 34.3-22.19 34.86-24.39 35.68-25.67 36.5-26.95 37.89-27.81L37.89-27.81Q40.67-29.54 46.12-29.54L46.12-29.54Q53.98-29.54 56.22-25.66L56.22-25.66Q57.57-23.32 57.76-19.04L57.76-19.04Q57.83-17.02 57.83-14.58 57.83-12.13 57.68-10.02 57.52-7.91 57.05-6.23 56.59-4.54 55.76-3.28 54.93-2.03 53.56-1.17L53.56-1.17Q50.88 0.49 45.73 0.49L45.73 0.49Q38.01 0.49 35.59-3.32L35.59-3.32Q34.1-5.69 33.86-9.96L33.86-9.96Q33.74-12.01 33.74-14.45ZM40.38-4.27Q41.26-3.61 42.59-3.28 43.92-2.95 46.23-2.95 48.53-2.95 50.11-3.61 51.68-4.27 52.48-5.73 53.27-7.18 53.48-9.5 53.68-11.82 53.68-14.89 53.68-17.97 53.5-20.02 53.32-22.07 52.59-23.41L52.59-23.41Q51.12-26.05 46.07-26.05L46.07-26.05Q40.72-26.05 39.11-23.41L39.11-23.41Q38.3-22.07 38.08-20 37.86-17.92 37.86-15.48 37.86-13.04 37.92-11.34 37.99-9.64 38.24-8.29 38.5-6.93 39-5.93 39.5-4.93 40.38-4.27ZM78.29-25.51L78.29-25.51Q75.17-25.51 71.92-22.39L71.92-22.39 71.92 0 67.87 0 67.87-29.05 71.43-29.05 71.82-25.2Q72.97-26.98 74.3-27.98 75.63-28.98 76.48-29.2L76.48-29.2Q77.7-29.54 78.8-29.54 79.9-29.54 81.56-29.1L81.56-29.1 81.2-25.22Q79.95-25.51 78.29-25.51ZM92.62-1.73L92.62-1.73 92.62 11.11 88.57 11.11 88.57-29.05 91.86-29.05 92.33-26.05Q95.18-28.2 99.77-29.2L99.77-29.2Q101.43-29.54 103.39-29.54 105.34-29.54 106.84-29.03 108.34-28.52 109.32-27.6 110.3-26.68 110.83-25.42 111.37-24.15 111.64-22.66L111.64-22.66Q111.98-20.61 111.98-16.11L111.98-16.11 111.98-15.55Q111.98-9.84 111.59-7.64 111.2-5.44 110.56-4.02 109.93-2.59 108.81-1.59L108.81-1.59Q106.49 0.49 101.63 0.49 96.77 0.49 92.62-1.73ZM92.62-22.92L92.62-5.08Q96.77-3.17 101.34-3.17L101.34-3.17Q104.31-3.17 105.68-4.27L105.68-4.27Q107.54-5.79 107.76-11.33L107.76-11.33Q107.83-13.16 107.83-15.53L107.83-15.53 107.83-16.06Q107.83-21.68 106.85-23.58L106.85-23.58Q105.75-25.76 102.31-25.76L102.31-25.76 101.95-25.76Q98.36-25.76 94.5-23.97L94.5-23.97Q93.38-23.46 92.62-22.92L92.62-22.92ZM121.16-14.45L121.16-14.45Q121.16-20 121.72-22.19 122.28-24.39 123.1-25.67 123.92-26.95 125.31-27.81L125.31-27.81Q128.09-29.54 133.53-29.54L133.53-29.54Q141.4-29.54 143.64-25.66L143.64-25.66Q144.99-23.32 145.18-19.04L145.18-19.04Q145.25-17.02 145.25-14.58 145.25-12.13 145.09-10.02 144.94-7.91 144.47-6.23 144.01-4.54 143.18-3.28 142.35-2.03 140.98-1.17L140.98-1.17Q138.3 0.49 133.14 0.49L133.14 0.49Q125.43 0.49 123.01-3.32L123.01-3.32Q121.52-5.69 121.28-9.96L121.28-9.96Q121.16-12.01 121.16-14.45ZM127.8-4.27Q128.68-3.61 130.01-3.28 131.34-2.95 133.64-2.95 135.95-2.95 137.53-3.61 139.1-4.27 139.89-5.73 140.69-7.18 140.9-9.5 141.1-11.82 141.1-14.89 141.1-17.97 140.92-20.02 140.74-22.07 140-23.41L140-23.41Q138.54-26.05 133.49-26.05L133.49-26.05Q128.14-26.05 126.53-23.41L126.53-23.41Q125.72-22.07 125.5-20 125.28-17.92 125.28-15.48 125.28-13.04 125.34-11.34 125.41-9.64 125.66-8.29 125.92-6.93 126.42-5.93 126.92-4.93 127.8-4.27ZM165.71-25.51L165.71-25.51Q162.59-25.51 159.34-22.39L159.34-22.39 159.34 0 155.29 0 155.29-29.05 158.85-29.05 159.24-25.2Q160.39-26.98 161.72-27.98 163.05-28.98 163.9-29.2L163.9-29.2Q165.12-29.54 166.22-29.54 167.32-29.54 168.98-29.1L168.98-29.1 168.62-25.22Q167.37-25.51 165.71-25.51ZM198.37-19.41L198.37-10.3Q198.37-5.44 198.84-0.2L198.84-0.2 195.22 0.1 194.61-3.3Q191.51-0.81 186.41 0.17L186.41 0.17Q184.75 0.49 183.46 0.49 182.16 0.49 181.17 0.37 180.19 0.24 179.27-0.11 178.35-0.46 177.57-1.1 176.79-1.73 176.21-2.78L176.21-2.78Q174.96-5 174.96-8.12 174.96-11.23 175.41-12.95 175.86-14.67 176.91-15.82L176.91-15.82Q178.99-18.09 183.9-18.09 188.8-18.09 194.37-16.24L194.37-16.24 194.37-19.41Q194.37-24.71 190-25.68L190-25.68Q188.58-26 186.75-26L186.75-26Q182.58-26 178.09-24.34L178.09-24.34 177.18-27.86Q178.43-28.69 183.53-29.35L183.53-29.35Q185.14-29.54 187.4-29.54 189.66-29.54 191.83-29 194-28.47 195.44-27.25L195.44-27.25Q198.37-24.83 198.37-19.41L198.37-19.41ZM194.27-13.18L194.27-13.18Q188.56-14.62 183.73-14.62L183.73-14.62Q180.75-14.62 179.77-12.92L179.77-12.92Q179.11-11.72 179.11-9.38 179.11-7.03 179.37-5.98 179.62-4.93 180.21-4.25L180.21-4.25Q181.36-2.95 183.99-2.95L183.99-2.95Q188.12-2.95 192.17-5.08L192.17-5.08Q193.42-5.71 194.42-6.49L194.42-6.49Q194.27-9.13 194.27-13.18ZM222.35-4.57L223.74-1.39Q219.76 0.49 216.39 0.49L216.39 0.49Q210.29 0.49 209.46-4.74L209.46-4.74Q209.26-5.98 209.26-8.35L209.26-8.35 209.26-25.66 205.74-25.66 205.74-28.66 209.26-29.05 209.89-35.69 213.29-35.69 213.29-29.05 221.76-29.05 221.76-25.66 213.29-25.66 213.29-8.42Q213.29-5.42 213.73-4.59L213.73-4.59Q214.53-3.08 216.95-3.08 219.37-3.08 222.35-4.57L222.35-4.57ZM251.84-5.03L253.03-1.54Q247.98 0.49 241.87 0.49L241.87 0.49Q238.33 0.49 235.87-0.24L235.87-0.24Q231.94-1.37 230.64-4.88L230.64-4.88Q229.45-8.18 229.45-14.65L229.45-14.65 229.45-15.89Q229.45-23.63 232.67-26.76L232.67-26.76Q235.58-29.54 242.36-29.54L242.36-29.54Q248.98-29.54 251.4-26.27L251.4-26.27Q252.57-24.68 252.95-22.42 253.32-20.17 253.32-18.12L253.32-18.12Q253.32-14.92 253.18-13.16L253.18-13.16Q249.74-13.01 247-13.01L247-13.01Q247-13.01 243.07-13.01L243.07-13.01Q236.92-13.01 233.6-13.55L233.6-13.55Q233.6-7.93 235.01-5.71L235.01-5.71Q236.75-3 241.92-3 247.1-3 251.84-5.03L251.84-5.03ZM233.6-16.41L249.2-16.41 249.2-18.75Q249.2-22.58 247.71-24.22L247.71-24.22Q246.05-26.05 241.97-26.05L241.97-26.05Q237.09-26.05 235.31-23.93L235.31-23.93Q233.6-21.9 233.6-16.41L233.6-16.41ZM271.8 0L284.03-37.35 289.72-37.35 302.78 0 298.36 0 294.65-10.96 279.61-10.96 276.1 0 271.8 0ZM280.74-14.45L293.48-14.45 286.89-34.06 286.13-31.27 280.74-14.45ZM328.81 0.1L328.22-3.25Q323.07 0.49 317.75 0.49L317.75 0.49Q311.86 0.49 309.91-3.83L309.91-3.83Q308.79-6.27 308.65-9 308.52-11.72 308.52-13.78 308.52-15.84 308.55-17.94 308.59-20.04 308.86-21.83 309.13-23.61 309.7-25.04 310.28-26.46 311.35-27.47L311.35-27.47Q313.57-29.54 318.69-29.54 323.8-29.54 327.93-27.76L327.93-27.76 327.93-41.55 331.98-41.94 331.98-13.35Q331.98-4.93 332.44-0.2L332.44-0.2 328.81 0.1ZM327.9-13.55L327.93-24.41Q323.53-25.88 319.43-25.88L319.43-25.88Q316.45-25.88 315.5-25.39 314.55-24.9 314.05-24.12 313.55-23.34 313.23-21.97L313.23-21.97Q312.67-19.41 312.67-13.53L312.67-13.53 312.67-12.99Q312.67-7.5 313.86-5.4L313.86-5.4Q315.16-3.17 318.67-3.17L318.67-3.17 319.04-3.17Q322.41-3.17 326.22-5.32L326.22-5.32Q327.27-5.91 328.02-6.49L328.02-6.49 328.02-6.54Q327.9-8.81 327.9-13.55L327.9-13.55ZM349.16 0L339.2-29.05 343.57-29.05 351.19-5.35 351.92-2.93 352.61-5.35 359.88-29.05 364.3-29.05 354.49 0 349.16 0ZM374.67-36.01L374.67-36.01Q373.04-36.01 372.57-36.47L372.57-36.47Q371.84-37.23 371.84-38.56 371.84-39.89 372-40.47 372.16-41.04 372.48-41.36L372.48-41.36Q373.06-41.94 374.27-41.94 375.48-41.94 376.01-41.82 376.53-41.7 376.87-41.36L376.87-41.36Q377.46-40.77 377.46-39.44 377.46-38.11 377.32-37.54 377.19-36.96 376.87-36.62L376.87-36.62Q376.26-36.01 374.67-36.01ZM372.75 0L372.7-29.05 376.7-29.05 376.7 0 372.75 0ZM386.73-2.39L388.49-5.76Q393.52-2.95 398.6-2.95L398.6-2.95Q402.82-2.95 403.55-5.96L403.55-5.96Q403.8-6.98 403.8-8.46 403.8-9.94 403.46-10.75 403.11-11.57 402.31-11.98 401.5-12.38 400.17-12.57 398.84-12.77 396.79-13.12 394.74-13.48 393.03-13.92 391.32-14.36 390.13-15.19L390.13-15.19Q387.59-16.97 387.68-21.19L387.68-21.19 387.68-21.8Q387.68-26.25 390.61-28.13L390.61-28.13Q393.45-29.98 399.97-29.39L399.97-29.39Q404.41-28.98 407.05-27.86L407.05-27.86 405.9-24.17Q402.97-25.42 398.87-25.98L398.87-25.98Q397.6-26.15 396.49-26.15 395.38-26.15 394.47-25.98 393.57-25.81 392.96-25.34L392.96-25.34Q391.79-24.39 391.74-21.8L391.74-21.8Q391.66-18.75 393.45-17.92L393.45-17.92Q395.16-17.11 397.5-16.81 399.84-16.5 401.33-16.27 402.82-16.04 404.04-15.65 405.26-15.26 406.14-14.4L406.14-14.4Q407.97-12.67 407.92-8.37L407.92-8.37Q407.8-0.88 401.67 0.17L401.67 0.17Q399.82 0.49 397.96 0.49 396.11 0.49 394.56 0.26 393.01 0.02 391.59-0.39L391.59-0.39Q388.91-1.15 386.73-2.39L386.73-2.39ZM439.15-5.03L440.34-1.54Q435.29 0.49 429.19 0.49L429.19 0.49Q425.65 0.49 423.18-0.24L423.18-0.24Q419.25-1.37 417.96-4.88L417.96-4.88Q416.76-8.18 416.76-14.65L416.76-14.65 416.76-15.89Q416.76-23.63 419.98-26.76L419.98-26.76Q422.89-29.54 429.67-29.54L429.67-29.54Q436.29-29.54 438.71-26.27L438.71-26.27Q439.88-24.68 440.26-22.42 440.64-20.17 440.64-18.12L440.64-18.12Q440.64-14.92 440.49-13.16L440.49-13.16Q437.05-13.01 434.31-13.01L434.31-13.01Q434.31-13.01 430.38-13.01L430.38-13.01Q424.23-13.01 420.91-13.55L420.91-13.55Q420.91-7.93 422.33-5.71L422.33-5.71Q424.06-3 429.23-3 434.41-3 439.15-5.03L439.15-5.03ZM420.91-16.41L436.51-16.41 436.51-18.75Q436.51-22.58 435.02-24.22L435.02-24.22Q433.36-26.05 429.28-26.05L429.28-26.05Q424.4-26.05 422.62-23.93L422.62-23.93Q420.91-21.9 420.91-16.41L420.91-16.41ZM461.31-25.51L461.31-25.51Q458.19-25.51 454.94-22.39L454.94-22.39 454.94 0 450.89 0 450.89-29.05 454.45-29.05 454.84-25.2Q455.99-26.98 457.32-27.98 458.65-28.98 459.51-29.2L459.51-29.2Q460.73-29.54 461.83-29.54 462.92-29.54 464.58-29.1L464.58-29.1 464.22-25.22Q462.97-25.51 461.31-25.51ZM470.03-2.39L471.78-5.76Q476.81-2.95 481.89-2.95L481.89-2.95Q486.11-2.95 486.85-5.96L486.85-5.96Q487.09-6.98 487.09-8.46 487.09-9.94 486.75-10.75 486.41-11.57 485.6-11.98 484.8-12.38 483.47-12.57 482.14-12.77 480.08-13.12 478.03-13.48 476.32-13.92 474.62-14.36 473.42-15.19L473.42-15.19Q470.88-16.97 470.98-21.19L470.98-21.19 470.98-21.8Q470.98-26.25 473.91-28.13L473.91-28.13Q476.74-29.98 483.26-29.39L483.26-29.39Q487.7-28.98 490.34-27.86L490.34-27.86 489.19-24.17Q486.26-25.42 482.16-25.98L482.16-25.98Q480.89-26.15 479.78-26.15 478.67-26.15 477.77-25.98 476.86-25.81 476.25-25.34L476.25-25.34Q475.08-24.39 475.03-21.8L475.03-21.8Q474.96-18.75 476.74-17.92L476.74-17.92Q478.45-17.11 480.79-16.81 483.14-16.5 484.63-16.27 486.11-16.04 487.34-15.65 488.56-15.26 489.44-14.4L489.44-14.4Q491.27-12.67 491.22-8.37L491.22-8.37Q491.1-0.88 484.97 0.17L484.97 0.17Q483.11 0.49 481.26 0.49 479.4 0.49 477.85 0.26 476.3 0.02 474.88-0.39L474.88-0.39Q472.2-1.15 470.03-2.39L470.03-2.39Z" opacity="1" transform="matrix(1,0,0,1,0,0)" fill="#000000" class="slogan-text-1" data-fill-palette-color="secondary" id="text-1"></path></svg></g></svg></g></svg></g></svg></g></svg></g></svg></g></svg></g><path d="M171.878 72.916L171.878 12.525 394.028 12.525 394.028 234.675 171.878 234.675 171.878 174.284 176.455 174.284 176.455 230.098 389.452 230.098 389.452 17.102 176.455 17.102 176.455 72.916Z" fill="#000000" stroke="transparent" data-fill-palette-color="primary"></path></svg></g><defs></defs></svg><rect width="395.52" height="247.2" fill="none" stroke="none" visibility="hidden"></rect></g></svg></g></svg>